# xmcd
#
# Track frame offsets:
#	150
#	17880
#	36627
#	57090
#	73875
#	93627
#	114367
#	136480
#	156997
#	177447
#	194985
#	211902
#	236152
#	254915
# Disc length: 3699 seconds
# Revision: 22
# Processed by: cddbd v1.5.1PL2 Copyright (c) Steve Scherf et al.
#
# Submitted via: libkcddb 0.10
#
DISCID=e40e710e
DTITLE=BoA - LISTEN TO MY HEART
DYEAR=2002
DGENRE=Rock
TTITLE0=LISTEN TO MY HEART
TTITLE1=POWER
TTITLE2=Every Heart -ミンナノキモチ-
TTITLE3=Don't start now
TTITLE4=気持ちはつたわる
TTITLE5=Share your heart [with me]
TTITLE6=Dreams come true
TTITLE7=Amazing Kiss
TTITLE8=happiness
TTITLE9=ID;Peace B
TTITLE10=Nobody but you
TTITLE11=Nothing's gonna change
TTITLE12=LISTEN TO MY HEART [Hex Hector Main Mix:English version]
TTITLE13=the meaning of peace
EXTD=YEAR: 2002
EXTT0=
EXTT1=
EXTT2=
EXTT3=
EXTT4=
EXTT5=
EXTT6=
EXTT7=
EXTT8=
EXTT9=
EXTT10=
EXTT11=
EXTT12=
EXTT13=
PLAYORDER=
